<svg xmlns="http://www.w3.org/2000/svg" width="12" height="12" viewBox="0 0 12 12">
    <g fill="none" fill-rule="evenodd">
        <g fill="#FFF" fill-rule="nonzero" style="&#10;    fill: white;&#10;">
            <g>
                <path d="M2.087 0L0 2.667h1.434v6c0 1.465 1.176 2.666 2.61 2.666 1.432 0 2.608-1.201 2.608-2.666V3.333C6.652 2.59 7.228 2 7.957 2c.728 0 1.304.589 1.304 1.333v6H7.827L9.913 12 12 9.333h-1.434v-6c0-1.465-1.176-2.666-2.61-2.666-1.432 0-2.608 1.201-2.608 2.666v5.334C5.348 9.41 4.772 10 4.043 10c-.728 0-1.304-.589-1.304-1.333v-6h1.434L2.087 0z" transform="translate(-32 -201) translate(32 201)"/>
            </g>
        </g>
    </g>
</svg>